<svg t="1598340872165" class="icon" viewBox="0 0 1024 1024" version="1.1" xmlns="http://www.w3.org/2000/svg" p-id="3104" width="200" height="200"><path d="M865.365333 725.333333h61.269334c19.029333 0 25.92 1.984 32.853333 5.696 6.976 3.712 12.437333 9.173333 16.149333 16.128 3.712 6.954667 5.696 13.866667 5.696 32.853334v146.624c0 19.029333-1.984 25.92-5.696 32.853333-3.712 6.976-9.173333 12.437333-16.128 16.149333-6.954667 3.712-13.866667 5.696-32.853333 5.696h-61.290667c-19.029333 0-25.92-1.984-32.853333-5.696a38.762667 38.762667 0 0 1-16.149333-16.128c-3.712-6.954667-5.696-13.866667-5.696-32.853333v-146.624c0-19.029333 1.984-25.92 5.696-32.853333 3.712-6.976 9.173333-12.437333 16.128-16.149334 6.954667-3.712 13.866667-5.696 32.853333-5.696z" fill="#333549" p-id="3105"></path><path d="M865.365333 746.666667c-14.122667 0-18.432 0.832-22.826666 3.178666a17.450667 17.450667 0 0 0-7.36 7.381334c-2.346667 4.373333-3.178667 8.682667-3.178667 22.805333v146.602667c0 14.122667 0.832 18.432 3.178667 22.826666a17.450667 17.450667 0 0 0 7.381333 7.36c4.373333 2.346667 8.682667 3.178667 22.805333 3.178667h61.269334c14.122667 0 18.432-0.832 22.826666-3.178667a17.450667 17.450667 0 0 0 7.36-7.381333c2.346667-4.373333 3.178667-8.682667 3.178667-22.805333v-146.602667c0-14.122667-0.832-18.432-3.178667-22.826667a17.450667 17.450667 0 0 0-7.381333-7.36c-4.373333-2.346667-8.682667-3.178667-22.805333-3.178666h-61.269334z" fill="#B9BECA" p-id="3106"></path><path d="M97.365333 725.333333h61.269334c19.029333 0 25.92 1.984 32.853333 5.696 6.976 3.712 12.437333 9.173333 16.149333 16.128 3.712 6.954667 5.696 13.866667 5.696 32.853334v146.624c0 19.029333-1.984 25.92-5.696 32.853333-3.712 6.976-9.173333 12.437333-16.128 16.149333-6.954667 3.712-13.866667 5.696-32.853333 5.696H97.344c-19.029333 0-25.92-1.984-32.853333-5.696a38.762667 38.762667 0 0 1-16.149334-16.128c-3.712-6.954667-5.696-13.866667-5.696-32.853333v-146.624c0-19.029333 1.984-25.92 5.696-32.853333 3.712-6.976 9.173333-12.437333 16.128-16.149334 6.954667-3.712 13.866667-5.696 32.853334-5.696z" fill="#333549" p-id="3107"></path><path d="M97.365333 746.666667c-14.122667 0-18.432 0.832-22.826666 3.178666a17.450667 17.450667 0 0 0-7.36 7.381334c-2.346667 4.373333-3.178667 8.682667-3.178667 22.805333v146.602667c0 14.122667 0.832 18.432 3.178667 22.826666a17.450667 17.450667 0 0 0 7.381333 7.36c4.373333 2.346667 8.682667 3.178667 22.805333 3.178667h61.269334c14.122667 0 18.432-0.832 22.826666-3.178667a17.450667 17.450667 0 0 0 7.36-7.381333c2.346667-4.373333 3.178667-8.682667 3.178667-22.805333v-146.602667c0-14.122667-0.832-18.432-3.178667-22.826667a17.450667 17.450667 0 0 0-7.381333-7.36C177.066667 747.498667 172.757333 746.666667 158.634667 746.666667H97.365333z" fill="#B9BECA" p-id="3108"></path><path d="M195.925333 910.656L165.845333 940.8a10.666667 10.666667 0 0 1-15.104-15.061333l30.08-30.165334a10.666667 10.666667 0 0 1 15.104 15.061334zM60.992 910.656l30.165333 30.165333a10.666667 10.666667 0 0 0 15.082667-15.082666L76.074667 895.573333a10.666667 10.666667 0 0 0-15.082667 15.082667zM195.925333 846.656L165.845333 876.8a10.666667 10.666667 0 0 1-15.104-15.061333l30.08-30.165334a10.666667 10.666667 0 0 1 15.104 15.061334zM60.992 846.656l30.165333 30.165333a10.666667 10.666667 0 0 0 15.082667-15.082666L76.074667 831.573333a10.666667 10.666667 0 0 0-15.082667 15.082667zM963.925333 910.656l-30.08 30.165333a10.666667 10.666667 0 0 1-15.104-15.061333l30.08-30.165333a10.666667 10.666667 0 0 1 15.104 15.061333zM828.992 910.656l30.165333 30.165333a10.666667 10.666667 0 0 0 15.082667-15.082666l-30.165333-30.165334a10.666667 10.666667 0 0 0-15.082667 15.082667zM963.925333 846.656l-30.08 30.165333a10.666667 10.666667 0 0 1-15.104-15.061333l30.08-30.165333a10.666667 10.666667 0 0 1 15.104 15.061333zM828.992 846.656l30.165333 30.165333a10.666667 10.666667 0 0 0 15.082667-15.082666l-30.165333-30.165334a10.666667 10.666667 0 0 0-15.082667 15.082667zM862.165333 429.184l-45.248-45.269333 67.754667-67.754667 9.024-45.098667a32 32 0 0 1 37.653333-25.109333l1.493334 0.341333 47.573333 11.904c6.890667 1.706667 10.218667 2.944 13.802667 5.12 3.52 2.133333 6.442667 4.842667 8.853333 8.192 2.432 3.392 3.904 6.613333 6.144 13.354667l8.213333 24.618667a32 32 0 0 1-25.088 41.685333l-62.592 10.453333-67.584 67.562667z" fill="#333549" p-id="3109"></path><path d="M919.488 341.696l69.333333-11.562667a10.666667 10.666667 0 0 0 8.362667-13.888l-8.213333-24.64c-1.621333-4.885333-2.282667-6.336-3.264-7.68a8.213333 8.213333 0 0 0-2.538667-2.368c-1.450667-0.874667-2.922667-1.429333-7.914667-2.666666l-47.594666-11.904-0.490667-0.106667a10.666667 10.666667 0 0 0-12.565333 8.362667l-10.282667 51.434666-57.237333 57.237334 15.082666 15.082666 57.322667-57.301333z" fill="#7DACFF" p-id="3110"></path><path d="M157.418667 429.184L202.666667 383.914667 134.912 316.16l-9.024-45.098667a32 32 0 0 0-37.653333-25.109333l-1.493334 0.341333-47.573333 11.904c-6.869333 1.706667-10.218667 2.944-13.802667 5.12-3.52 2.133333-6.442667 4.842667-8.853333 8.192-2.432 3.392-3.904 6.613333-6.144 13.354667l-8.213333 24.618667a32 32 0 0 0 25.109333 41.685333l62.592 10.453333 67.562667 67.562667z" fill="#333549" p-id="3111"></path><path d="M100.096 341.696l-69.333333-11.562667a10.666667 10.666667 0 0 1-8.362667-13.888l8.213333-24.64c1.621333-4.885333 2.282667-6.336 3.264-7.68a8.213333 8.213333 0 0 1 2.538667-2.368c1.450667-0.874667 2.944-1.429333 7.914667-2.666666l47.594666-11.904 0.490667-0.106667a10.666667 10.666667 0 0 1 12.565333 8.362667l10.282667 51.434666 57.237333 57.237334-15.082666 15.082666-57.322667-57.301333z" fill="#7DACFF" p-id="3112"></path><path d="M890.837333 319.68c8.746667 24.277333 23.168 39.317333 40.106667 55.552 9.941333 9.322667 23.765333 24.597333 41.472 45.845333 3.477333 3.584 6.656 7.445333 9.557333 11.562667l4.181334 5.12c1.237333 2.474667 2.389333 5.034667 3.456 7.616 7.872 15.381333 12.330667 31.68 12.970666 69.802667 0.064 2.304 0.085333 4.394667 0.085334 6.250666v173.824c0 47.573333-4.949333 64.789333-14.250667 82.176a96.917333 96.917333 0 0 1-40.32 40.32c-17.386667 9.301333-34.624 14.250667-82.176 14.250667H158.08c-47.573333 0-64.789333-4.949333-82.176-14.250667a96.917333 96.917333 0 0 1-40.32-40.32C26.282667 760.042667 21.333333 742.826667 21.333333 695.253333v-169.962666c0-45.546667 4.544-63.274667 13.077334-79.957334 1.066667-2.56 2.197333-5.098667 3.434666-7.573333l4.181334-5.12c2.901333-4.117333 6.08-7.978667 9.557333-11.562667 17.706667-21.248 31.530667-36.522667 41.472-45.845333 17.322667-16.597333 31.253333-33.173333 39.082667-57.408 1.365333-7.509333 18.474667-52.138667 51.349333-133.845333 14.037333-24.64 29.909333-43.946667 46.912-57.130667C247.082667 113.706667 285.76 106.666667 308.458667 106.666667h405.738666c22.677333 0 61.354667 7.018667 78.058667 20.181333 17.002667 13.162667 32.853333 32.490667 46.890667 57.130667 33.066667 82.624 50.304 127.872 51.690666 135.701333z" fill="#333549" p-id="3113"></path><path d="M964.522667 444.906667a87.488 87.488 0 0 0-8.469334-10.176c-17.216-20.629333-30.549333-35.349333-39.872-44.096-24.490667-23.466667-36.522667-39.04-45.418666-63.701334l-0.938667-3.562666c-0.96-5.461333-18.688-51.989333-49.92-130.090667-12.544-21.717333-26.389333-38.464-40.874667-49.685333-10.368-8.170667-42.218667-15.594667-64.853333-15.594667H308.48c-22.634667 0-54.485333 7.424-65.002667 15.722667-14.336 11.093333-28.181333 27.84-40.725333 49.578666-31.018667 77.141333-48.64 123.136-49.6 128.32l-0.682667 2.752c-8.234667 25.514667-21.674667 44.266667-44.8 66.432-9.173333 8.576-22.485333 23.296-40.746666 45.098667-2.688 2.773333-5.162667 5.781333-8.362667 10.24l-2.56 3.136c-0.704 1.493333-1.493333 3.242667-2.56 5.76-7.808 15.253333-10.752 31.509333-10.752 70.250667v169.962666c0 40.128 3.029333 55.893333 11.733333 72.106667 7.296 13.674667 17.898667 24.277333 31.573334 31.573333 16.213333 8.704 31.978667 11.733333 72.106666 11.733334h707.84c40.128 0 55.893333-3.029333 72.106667-11.733334a75.584 75.584 0 0 0 31.573333-31.573333c8.704-16.213333 11.733333-31.978667 11.733334-72.106667V524.202667v-2.773334c0-1.813333-0.021333-3.733333-0.085334-5.888-0.533333-32-3.456-46.421333-11.370666-62.037333a97.002667 97.002667 0 0 0-1.856-4.224l-3.498667-4.373333z" fill="#7DACFF" p-id="3114"></path><path d="M715.648 458.666667c7.082667 0 13.973333 2.346667 19.562667 6.677333l103.317333 79.850667a10.666667 10.666667 0 0 1 3.925333 10.517333l-20.693333 104.362667a10.666667 10.666667 0 0 1-7.082667 8.042666l-70.570666 23.573334a32 32 0 0 1-10.133334 1.642666H285.930667a32 32 0 0 1-10.176-1.664l-70.229334-23.573333a10.666667 10.666667 0 0 1-7.146666-8.405333l-16.917334-104.362667a10.666667 10.666667 0 0 1 3.946667-10.090667l101.248-79.722666a32 32 0 0 1 19.797333-6.848h409.194667z" fill="#333549" p-id="3115"></path><path d="M722.176 482.218667a10.666667 10.666667 0 0 0-6.528-2.218667h-409.173333a10.666667 10.666667 0 0 0-6.613334 2.282667L203.52 558.122667l14.869333 91.797333 64.128 21.525333a10.666667 10.666667 0 0 0 3.413334 0.554667h448a10.666667 10.666667 0 0 0 3.413333-0.554667l64.682667-21.610666 18.197333-91.797334-98.069333-75.818666z" fill="#B9BECA" p-id="3116"></path><path d="M321.002667 501.333333H699.733333c7.68 0 15.104 2.773333 20.906667 7.786667l70.912 61.226667a10.666667 10.666667 0 0 1 3.306667 10.965333l-12.8 45.824a10.666667 10.666667 0 0 1-6.421334 7.061333l-49.173333 19.157334a32 32 0 0 1-11.626667 2.176H304.213333a32 32 0 0 1-11.541333-2.154667l-49.493333-19.178667a10.666667 10.666667 0 0 1-6.656-8.128l-7.872-45.824a10.666667 10.666667 0 0 1 3.370666-9.728l67.541334-60.949333a32 32 0 0 1 21.44-8.234667z" fill="#333549" p-id="3117"></path><path d="M706.709333 525.269333a10.666667 10.666667 0 0 0-6.976-2.602666H321.002667a10.666667 10.666667 0 0 0-7.146667 2.752L250.666667 582.4l5.824 34.069333 43.861333 16.981334a10.666667 10.666667 0 0 0 3.84 0.725333h410.624a10.666667 10.666667 0 0 0 3.882667-0.725333l44.202666-17.216 9.557334-34.176-65.770667-56.810667z" fill="#FFEEB4" p-id="3118"></path><path d="M317.098667 647.317333l120.682666-128a10.666667 10.666667 0 0 0-15.530666-14.634666l-120.682667 128a10.666667 10.666667 0 1 0 15.530667 14.634666zM423.765333 647.317333l120.682667-128a10.666667 10.666667 0 0 0-15.530667-14.634666l-120.682666 128a10.666667 10.666667 0 1 0 15.530666 14.634666zM530.432 647.317333l120.682667-128a10.666667 10.666667 0 0 0-15.530667-14.634666l-120.682667 128a10.666667 10.666667 0 1 0 15.530667 14.634666zM637.098667 647.317333l95.125333-100.906666a10.666667 10.666667 0 0 0-15.530667-14.613334l-95.125333 100.885334a10.666667 10.666667 0 1 0 15.530667 14.634666zM289.664 160h444.672c29.525333 0 59.562667 24.832 68.330667 55.765333l27.2 96c9.493333 33.493333-13.44 61.568-49.493334 61.568H243.626667c-36.053333 0-58.986667-28.053333-49.493334-61.568l27.2-96c8.768-30.933333 38.826667-55.765333 68.330667-55.765333z" fill="#333549" p-id="3119"></path><path d="M289.664 181.333333c-19.584 0-41.536 18.133333-47.786667 40.234667l-27.221333 96c-5.525333 19.498667 6.677333 34.432 28.970667 34.432h536.746666c22.293333 0 34.496-14.933333 28.970667-34.432l-27.221333-96C775.893333 199.488 753.92 181.333333 734.336 181.333333H289.664z" fill="#B9BECA" p-id="3120"></path><path d="M281.834667 746.666667H742.186667a85.333333 85.333333 0 0 1 47.338666 14.336L896 832H128l106.496-70.997333a85.333333 85.333333 0 0 1 47.36-14.336z" fill="#333549" p-id="3121"></path><path d="M777.664 778.752A64 64 0 0 0 742.165333 768H281.813333a64 64 0 0 0-35.498666 10.752L198.464 810.666667h627.072l-47.872-31.914667z" fill="#B9BECA" p-id="3122"></path><path d="M190.08 467.584c-5.205333-1.92-12.906667-5.013333-24.832-9.92l-34.474667-14.250667-4.224-1.728c-43.242667-17.706667-64.938667-25.685333-73.941333-25.685333C31.786667 416 10.666667 444.138667 10.666667 467.925333c0 25.962667 2.453333 41.877333 11.029333 52.757334 11.370667 14.442667 81.578667 29.525333 99.818667 20.053333a1754.133333 1754.133333 0 0 0 36.629333-18.069333c6.506667-3.413333 12.352-6.656 17.493333-9.770667 10.773333-6.528 18.346667-12.288 22.634667-17.92 8-10.496 4.928-22.549333-8.192-27.392z" fill="#333549" p-id="3123"></path><path d="M164.608 494.634667a307.2 307.2 0 0 1-16.362667 9.130666c-10.133333 5.333333-36.437333 17.962667-36.586666 18.048-9.152 4.757333-68.16-7.936-73.194667-14.336-4.48-5.674667-6.464-18.517333-6.464-39.552 0-13.12 13.098667-30.592 20.608-30.592 4.565333 0 28.522667 8.810667 65.856 24.106667l4.202667 1.706667 34.453333 14.229333c8.874667 3.648 15.466667 6.314667 20.522667 8.298667-3.029333 2.517333-7.466667 5.589333-13.034667 8.96z" fill="#FFEEB4" p-id="3124"></path><path d="M833.92 467.584c5.184-1.92 12.885333-5.013333 24.832-9.92l34.453333-14.250667 4.245334-1.728c43.242667-17.706667 64.938667-25.685333 73.92-25.685333 20.842667 0 41.941333 28.138667 41.941333 51.925333 0 25.962667-2.453333 41.877333-11.029333 52.757334-11.370667 14.442667-81.557333 29.525333-99.797334 20.053333 0.256 0.128-26.069333-12.522667-36.650666-18.069333-6.506667-3.413333-12.352-6.656-17.493334-9.770667-10.773333-6.528-18.346667-12.288-22.613333-17.92-8-10.496-4.949333-22.549333 8.192-27.392z" fill="#333549" p-id="3125"></path><path d="M859.392 494.634667c4.736 2.88 10.197333 5.909333 16.341333 9.130666 10.154667 5.333333 36.437333 17.962667 36.586667 18.048 9.152 4.757333 68.181333-7.936 73.216-14.336 4.48-5.674667 6.442667-18.517333 6.442667-39.552 0-13.12-13.098667-30.592-20.608-30.592-4.544 0-28.522667 8.810667-65.834667 24.106667l-4.224 1.706667-34.453333 14.229333c-8.874667 3.648-15.445333 6.314667-20.501334 8.298667 3.029333 2.517333 7.466667 5.589333 13.013334 8.96z" fill="#FFEEB4" p-id="3126"></path><path d="M412.010667 220.010667l-15.082667 15.082666a10.666667 10.666667 0 0 0 15.082667 15.082667l15.082666-15.082667a10.666667 10.666667 0 0 0-15.082666-15.082666z m-45.269334 45.248l-15.082666 15.082666a10.666667 10.666667 0 1 0 15.082666 15.104l15.104-15.104a10.666667 10.666667 0 1 0-15.104-15.082666z m-45.226666 45.269333a10.666667 10.666667 0 1 0 15.061333 15.082667 10.666667 10.666667 0 0 0-15.082667-15.082667zM348.010667 220.010667l-90.517334 90.517333a10.666667 10.666667 0 0 0 15.082667 15.082667l90.517333-90.517334a10.666667 10.666667 0 0 0-15.082666-15.082666z" fill="#333549" p-id="3127"></path></svg>